<?xml version="1.0" standalone="no"?>
<!DOCTYPE svg PUBLIC "-//W3C//DTD SVG 20010904//EN"
 "http://www.w3.org/TR/2001/REC-SVG-20010904/DTD/svg10.dtd">
<svg version="1.0" xmlns="http://www.w3.org/2000/svg"
 width="27.000000pt" height="27.000000pt" viewBox="0 0 27.000000 27.000000"
 preserveAspectRatio="xMidYMid meet">

<g transform="translate(0.000000,27.000000) scale(0.100000,-0.100000)"
fill="#000000" stroke="none">
<path d="M93 225 c-37 -16 -55 -45 -55 -90 0 -45 18 -74 56 -90 36 -15 71 -11
98 12 11 10 18 11 23 4 12 -21 26 -11 23 17 -2 22 -8 28 -35 30 -19 2 -33 -1
-33 -7 0 -6 5 -11 11 -11 8 0 8 -5 -1 -15 -7 -8 -28 -15 -46 -15 -45 0 -74 30
-74 75 0 76 86 104 134 43 22 -29 26 -30 26 -12 0 25 -36 59 -70 67 -14 3 -39
0 -57 -8z"/>
</g>
</svg>
