<svg xmlns="http://www.w3.org/2000/svg" width="23" height="23" viewBox="0 0 23 23" fill="none">
<path d="M4.19284 22.8269C3.44809 22.8269 2.81199 22.5905 2.28455 22.1178C1.75707 21.6451 1.49334 21.0751 1.49334 20.4077V3.42193H0V1.41455H6.71998V0.230713H15.68V1.41455H22.4V3.42193H20.9067V20.4077C20.9067 21.0837 20.6453 21.6559 20.1227 22.1243C19.6 22.5927 18.9615 22.8269 18.2072 22.8269H4.19284ZM18.6667 3.42193H3.73331V20.4077C3.73331 20.5278 3.77639 20.6264 3.86256 20.7037C3.94872 20.7809 4.05882 20.8195 4.19284 20.8195H18.2072C18.322 20.8195 18.4274 20.7766 18.5231 20.6908C18.6188 20.605 18.6667 20.5106 18.6667 20.4077V3.42193ZM7.32311 18.1429H9.56308V6.09848H7.32311V18.1429ZM12.8369 18.1429H15.0769V6.09848H12.8369V18.1429Z" fill="#ABABAB"/>
</svg>